<svg width="19" height="23" viewBox="0 0 19 23" fill="none" xmlns="http://www.w3.org/2000/svg">
<path id="Vector" d="M10.5231 22.714C8.47952 22.714 6.67991 22.22 5.09381 21.2011C3.50772 20.1823 2.28764 18.8237 1.37258 17.1874C0.457528 15.5201 0 13.6676 0 11.6607C0 9.65379 0.427026 7.83215 1.31158 6.22664C2.19614 4.59025 3.41621 3.26261 5.00231 2.27461C6.58841 1.2866 8.38802 0.761719 10.4621 0.761719C12.4143 0.761719 14.1224 1.22485 15.5865 2.15111C16.8065 2.86124 17.7521 3.81837 18.4841 4.96075C18.7587 5.39301 18.5451 5.94876 18.0876 6.10314L16.8675 6.50452C16.532 6.59714 16.1965 6.47364 16.0135 6.16489C15.4645 5.33126 14.7324 4.652 13.8174 4.158C12.7803 3.54049 11.6212 3.23174 10.3401 3.23174C8.93705 3.23174 7.62547 3.60224 6.4969 4.34325C5.36833 5.08425 4.45327 6.10314 3.78223 7.3999C3.11119 8.66578 2.77567 10.1169 2.77567 11.6916C2.77567 13.2971 3.11119 14.7482 3.81274 16.045C4.51428 17.3417 5.42934 18.3915 6.58841 19.1634C7.74748 19.9352 8.99805 20.3058 10.4011 20.3058C11.3162 20.3058 12.2008 20.1514 13.0548 19.8117C13.9089 19.4721 14.6409 19.0399 15.2509 18.515C15.678 18.1136 16.0135 17.6814 16.2575 17.2491C16.41 16.9404 16.776 16.786 17.1116 16.8786L18.3316 17.2491C18.7892 17.3726 19.0027 17.8975 18.7892 18.3297C18.4231 19.009 17.9351 19.6265 17.3251 20.2131C16.471 20.985 15.4645 21.6334 14.2749 22.0656C13.1158 22.4979 11.8347 22.714 10.5231 22.714Z" fill="#222F3E"/>
</svg>
