<svg width="22" height="23" viewBox="0 0 22 23" fill="none" xmlns="http://www.w3.org/2000/svg">
<path id="Vector" d="M10.8068 22.5905C8.79368 22.5905 6.99407 22.0965 5.43847 21.0776C3.85238 20.0896 2.6018 18.7311 1.71725 17.0638C0.802194 15.3965 0.344666 13.544 0.344666 11.5371C0.344666 9.5611 0.771688 7.73946 1.65624 6.10307C2.5713 4.46669 3.82188 3.13905 5.37748 2.15104C6.96357 1.16303 8.73268 0.638153 10.7458 0.638153C12.8199 0.638153 14.6195 1.13216 16.1751 2.15104C17.7307 3.13905 18.9203 4.46668 19.7744 6.13395C20.6589 7.77034 21.0859 9.53023 21.0859 11.5062C21.0859 11.6297 21.0859 11.7532 21.0859 11.8459C21.0859 12.2472 20.7504 12.5869 20.3234 12.5869H3.69987C3.39485 12.5869 3.15084 12.8648 3.21184 13.1426C3.39485 14.4394 3.79138 15.5818 4.43192 16.6315C5.16396 17.8048 6.07902 18.7311 7.20759 19.4412C8.33616 20.1204 9.55623 20.4601 10.8983 20.4601C12.2709 20.4601 13.552 20.1204 14.7415 19.4103C15.7786 18.8237 16.5412 18.0518 17.0597 17.1255C17.2122 16.8477 17.5782 16.7242 17.8832 16.7859L18.7678 17.0329C19.2253 17.1564 19.4693 17.7122 19.2253 18.1444C18.8288 18.8237 18.3103 19.4721 17.6392 20.0278C16.7547 20.7997 15.7176 21.4481 14.5585 21.8803C13.43 22.3743 12.1489 22.5905 10.8068 22.5905ZM3.63886 10.6109H17.9747C18.2798 10.6109 18.5238 10.333 18.4628 10.0551C18.3103 8.75835 17.9137 7.61596 17.2732 6.59708C16.5412 5.39294 15.6261 4.49756 14.4975 3.84918C13.369 3.16992 12.1184 2.8303 10.7763 2.8303C9.40372 2.8303 8.18365 3.16992 7.05508 3.84918C5.92651 4.49756 5.01145 5.42382 4.27941 6.59708C3.66937 7.61596 3.27284 8.75835 3.12033 10.0551C3.12033 10.3639 3.36435 10.6109 3.63886 10.6109Z" fill="#222F3E"/>
</svg>
