<svg width="13" height="29" viewBox="0 0 13 29" fill="none" xmlns="http://www.w3.org/2000/svg">
<path id="Vector" d="M12.6995 26.6145C12.8215 26.985 12.6385 27.3863 12.2725 27.5407C11.9674 27.6642 11.6014 27.8186 11.1439 28.0039C10.2898 28.3435 9.31378 28.5287 8.18521 28.5287C6.99564 28.5287 5.98907 28.1891 5.10452 27.5099C4.21997 26.8306 3.79294 25.8117 3.79294 24.4532V9.84921C3.79294 9.57133 3.57943 9.3552 3.30491 9.3552H1.65781C1.23078 9.3552 0.895264 9.01557 0.895264 8.58332V7.90407C0.895264 7.47181 1.23078 7.13218 1.65781 7.13218H3.30491C3.57943 7.13218 3.79294 6.91606 3.79294 6.63818V0.771881C3.79294 0.339628 4.12846 0 4.55549 0H5.77557C6.20259 0 6.53811 0.339628 6.53811 0.771881V6.66905C6.53811 6.94693 6.75163 7.16306 7.02614 7.16306H10.5949C11.0219 7.16306 11.3574 7.50269 11.3574 7.93494V8.6142C11.3574 9.04645 11.0219 9.38608 10.5949 9.38608H7.02614C6.75163 9.38608 6.53811 9.6022 6.53811 9.88008V23.7431C6.59912 24.515 6.87363 25.1016 7.33116 25.503C7.8497 25.8426 8.42923 26.0278 9.06977 26.0278C9.83231 26.0278 10.4729 25.9043 11.0829 25.6573C11.2354 25.5956 11.3879 25.5338 11.5099 25.4721C11.9064 25.2868 12.3945 25.503 12.5165 25.9352L12.6995 26.6145Z" fill="#222F3E"/>
</svg>
