<svg width="18" height="24" viewBox="0 0 18 24" fill="none" xmlns="http://www.w3.org/2000/svg">
<g id="Group">
<path id="Vector" d="M15.6872 1.00866L17.8224 18.6384C18.0359 20.3057 16.8463 21.8186 15.1992 22.0347L5.5606 23.2388C3.9135 23.455 2.4189 22.2508 2.20539 20.5836L0.0397553 2.79942C0.0092534 2.49067 0.222768 2.18192 0.558289 2.15104L2.11388 1.96579C2.4189 1.93491 2.72392 2.15104 2.75442 2.49067L4.76755 19.0089C4.85905 19.8426 5.6216 20.4292 6.44515 20.3366L13.6741 19.4412C14.4976 19.3486 15.0772 18.5767 14.9857 17.743L12.9726 1.16303C12.9421 0.854281 13.1556 0.545528 13.4911 0.514653L14.8942 0.329401C15.2602 0.267651 15.6567 0.576404 15.6872 1.00866Z" fill="#ACBAC9"/>
<path id="Vector_2" d="M12.5151 17.8048L7.17723 18.4532C6.81121 18.5149 6.44518 18.237 6.41468 17.8357L5.74364 12.3708L5.28611 8.54222C5.25561 8.38784 5.40812 8.29522 5.53013 8.32609L6.32318 8.57309C7.90927 9.03622 9.58688 9.00535 11.1425 8.41872L11.783 8.17172C11.905 8.14084 12.027 8.20259 12.027 8.32609L13.0641 17.002C13.1556 17.4034 12.8811 17.7739 12.5151 17.8048Z" fill="#0B66EF"/>
</g>
</svg>
